<?xml version="1.0" encoding="UTF-8"?><svg id="Layer_1" xmlns="http://www.w3.org/2000/svg" xmlns:xlink="http://www.w3.org/1999/xlink" viewBox="0 0 1617 1663.77"><defs><style>.cls-1,.cls-2{fill:#fff;}.cls-3{fill:#333;}.cls-4{fill:#1a1a1a;}.cls-2{font-family:MinionVariableConcept-Roman, 'Minion Variable Concept';font-size:1296px;font-variation-settings:'wght' 400, 'opsz' 11;stroke-width:5px;}.cls-2,.cls-5,.cls-6{stroke:#000;}.cls-2,.cls-5,.cls-6,.cls-7{stroke-miterlimit:10;}.cls-5{fill:url(#linear-gradient);}.cls-5,.cls-6,.cls-7{stroke-width:10px;}.cls-6,.cls-7{fill:none;}.cls-7{stroke:#fff;}</style><linearGradient id="linear-gradient" x1="808.5" y1="1613" x2="808.5" y2="6" gradientUnits="userSpaceOnUse"><stop offset=".2" stop-color="#cce0f4"/><stop offset=".23" stop-color="#c2dcf2"/><stop offset=".29" stop-color="#a9d2ee"/><stop offset=".36" stop-color="#7fc2e7"/><stop offset=".45" stop-color="#46abdd"/><stop offset=".5" stop-color="#1e9cd7"/><stop offset=".62" stop-color="#0075be"/><stop offset=".74" stop-color="#005b97"/><stop offset=".86" stop-color="#002199"/></linearGradient></defs><circle class="cls-5" cx="808.5" cy="809.5" r="803.5"/><path d="m196,1330c-19.33-26-38.67-52-58-78l102-71,73-58,17.76-48h19.12l32.12-28,22-18h42.94l21.06-7,32,16,34,13,24.71,24,16.29,14.65-22,28.35v17l-8,38-27,24-31,50-6,32-128,61-97,45c-20-18.33-40-36.67-60-55Z"/><polygon class="cls-3" points="1320 1037 1198 993 1145 987 1059 972 991 959 935 969 878 968 808.71 998 737 1013 674.72 1047 622 1087 575 1089.65 553 1118 545 1173 518 1197 487 1247 481 1279 285 1372 246 1389 1309 1437 1320 1037"/><polygon class="cls-4" points="481 1279 674.72 1102.88 658.71 1212 481 1279"/><polygon points="682.94 1301.41 804 1250 840 1165 815 1129 737 1146 702.82 1129 674.72 1102.88 658.71 1212 682.94 1301.41"/><polygon class="cls-4" points="812 1287 928 1235 959 1221 906 1166 840 1165 804 1250 812 1287"/><polyline class="cls-4" points="674.72 1102.88 545 1173 518 1197 487 1247 481 1279"/><text class="cls-2" transform="translate(248.93 1190.81)"><tspan x="0" y="0">M</tspan></text><polygon class="cls-3" points="1198 993 1320 1037 1473.5 1083.5 1505 1213 1330 1420 959 1372 1198 993"/><polyline class="cls-3" points="1145 987 991 959 959 1372 1198 993"/><polyline class="cls-7" points="551.89 227.45 666.95 234.56 733.32 289.17 791.25 343.11 788.05 425.61 913.59 458.22 951.83 374.75 772.8 336.81"/><polyline class="cls-3" points="1556 1104 1294.5 1041.5 1324.5 1273.5 1170.88 1423 1504 1213"/><ellipse class="cls-1" cx="669.17" cy="239.94" rx="15.46" ry="16.78" transform="translate(-17.08 54.43) rotate(-4.6)"/><ellipse class="cls-1" cx="694.41" cy="227.34" rx="5.59" ry="5.72"/><polygon class="cls-1" points="667.02 237.97 665.92 234.24 691.73 227.04 692.83 230.78 667.02 237.97"/><ellipse class="cls-1" cx="666.63" cy="212.59" rx="5.46" ry="5.59" transform="translate(-1.32 4.17) rotate(-.36)"/><polygon class="cls-1" points="670.17 242.32 666.06 242.72 663.78 217.51 667.88 217.11 670.17 242.32"/><ellipse class="cls-1" cx="650.88" cy="261.72" rx="5.97" ry="5.26" transform="translate(-49.54 222.25) rotate(-18.68)"/><polygon class="cls-1" points="665.98 243.4 668.86 246.15 649.67 264.15 646.79 261.4 665.98 243.4"/><ellipse class="cls-1" cx="690.36" cy="258.8" rx="5.41" ry="5.73" transform="translate(339.1 907.02) rotate(-82.1)"/><polygon class="cls-1" points="669.08 241.08 672.06 238.34 690.54 256.37 687.56 259.11 669.08 241.08"/><ellipse class="cls-1" cx="681.36" cy="222.7" rx="3.67" ry="3.59" transform="translate(449.87 901.12) rotate(-89.26)"/><polygon class="cls-1" points="667.47 239.36 664.99 237.57 678.74 223 681.22 224.79 667.47 239.36"/><ellipse class="cls-1" cx="652.25" cy="223.12" rx="3.74" ry="3.83" transform="translate(-.69 2.04) rotate(-.18)"/><polygon class="cls-1" points="671.03 235.15 668.91 237.39 652.78 225.74 654.9 223.5 671.03 235.15"/><ellipse class="cls-1" cx="664.38" cy="264.75" rx="5.71" ry="5.22" transform="translate(-46.82 340.19) rotate(-27.78)"/><polygon class="cls-1" points="663.89 247.88 667.04 247.76 666.01 267.12 662.87 267.24 663.89 247.88"/><ellipse class="cls-1" cx="692.69" cy="239.48" rx="4.04" ry="3.6" transform="translate(197.16 779.5) rotate(-66.53)"/><polygon class="cls-1" points="671.49 239.1 671.95 236.14 692.36 237.24 691.9 240.19 671.49 239.1"/><ellipse class="cls-1" cx="679.64" cy="267.92" rx="4.2" ry="4.09" transform="translate(400.11 942.86) rotate(-89.02)"/><polygon class="cls-1" points="669.39 247.64 672.35 246.55 680.84 264.03 677.89 265.11 669.39 247.64"/><ellipse class="cls-1" cx="640.66" cy="232.34" rx="5.82" ry="5.98" transform="translate(-4.56 12.97) rotate(-1.16)"/><polygon class="cls-1" points="671.83 236.24 672.24 232.36 645.59 230.29 645.18 234.17 671.83 236.24"/><ellipse class="cls-1" cx="647.5" cy="243.93" rx="4.08" ry="4.7" transform="translate(364.1 875.16) rotate(-86.46)"/><polygon class="cls-1" points="667.45 239.61 666.46 236.8 646.6 241.83 647.59 244.64 667.45 239.61"/><ellipse class="cls-1" cx="555.56" cy="221.27" rx="15.46" ry="16.78" transform="translate(-15.95 45.26) rotate(-4.6)"/><ellipse class="cls-1" cx="580.79" cy="208.66" rx="5.59" ry="5.72"/><polygon class="cls-1" points="553.4 219.3 552.3 215.56 578.12 208.37 579.22 212.11 553.4 219.3"/><ellipse class="cls-1" cx="553.02" cy="193.92" rx="5.46" ry="5.59" transform="translate(-1.2 3.46) rotate(-.36)"/><polygon class="cls-1" points="556.55 223.65 552.45 224.05 550.17 198.84 554.27 198.44 556.55 223.65"/><ellipse class="cls-1" cx="537.27" cy="243.05" rx="5.97" ry="5.26" transform="translate(-49.54 184.88) rotate(-18.68)"/><polygon class="cls-1" points="552.37 224.73 555.25 227.48 536.05 245.48 533.18 242.73 552.37 224.73"/><ellipse class="cls-1" cx="576.75" cy="240.12" rx="5.41" ry="5.73" transform="translate(259.61 778.38) rotate(-82.1)"/><polygon class="cls-1" points="555.47 222.41 558.45 219.67 576.93 237.7 573.95 240.44 555.47 222.41"/><ellipse class="cls-1" cx="567.75" cy="204.03" rx="3.67" ry="3.59" transform="translate(356.4 769.09) rotate(-89.26)"/><polygon class="cls-1" points="553.86 220.69 551.38 218.9 565.13 204.33 567.61 206.12 553.86 220.69"/><ellipse class="cls-1" cx="538.63" cy="204.45" rx="3.74" ry="3.83" transform="translate(-.64 1.69) rotate(-.18)"/><polygon class="cls-1" points="557.42 216.48 555.3 218.72 539.17 207.07 541.29 204.83 557.42 216.48"/><ellipse class="cls-1" cx="550.77" cy="246.08" rx="5.71" ry="5.22" transform="translate(-51.21 285.08) rotate(-27.78)"/><polygon class="cls-1" points="550.28 229.21 553.43 229.09 552.4 248.45 549.26 248.57 550.28 229.21"/><ellipse class="cls-1" cx="579.08" cy="220.81" rx="4.04" ry="3.6" transform="translate(145.92 664.05) rotate(-66.53)"/><polygon class="cls-1" points="557.87 220.43 558.34 217.47 578.75 218.57 578.28 221.52 557.87 220.43"/><ellipse class="cls-1" cx="566.03" cy="249.25" rx="4.2" ry="4.09" transform="translate(307.11 810.92) rotate(-89.02)"/><polygon class="cls-1" points="555.78 228.97 558.73 227.88 567.23 245.36 564.27 246.44 555.78 228.97"/><ellipse class="cls-1" cx="527.05" cy="213.67" rx="5.82" ry="5.98" transform="translate(-4.2 10.67) rotate(-1.16)"/><polygon class="cls-1" points="558.22 217.57 558.63 213.69 531.97 211.62 531.56 215.5 558.22 217.57"/><ellipse class="cls-1" cx="533.89" cy="225.26" rx="4.08" ry="4.7" transform="translate(276.13 744.24) rotate(-86.46)"/><polygon class="cls-1" points="553.83 220.94 552.85 218.13 532.99 223.16 533.98 225.97 553.83 220.94"/><ellipse class="cls-1" cx="792.56" cy="343.27" rx="15.46" ry="16.78" transform="translate(-24.97 64.65) rotate(-4.6)"/><ellipse class="cls-1" cx="817.79" cy="330.66" rx="5.59" ry="5.72"/><polygon class="cls-1" points="790.4 341.3 789.3 337.56 815.12 330.37 816.22 334.11 790.4 341.3"/><ellipse class="cls-1" cx="790.02" cy="315.92" rx="5.46" ry="5.59" transform="translate(-1.96 4.95) rotate(-.36)"/><polygon class="cls-1" points="793.55 345.65 789.45 346.05 787.17 320.84 791.27 320.44 793.55 345.65"/><ellipse class="cls-1" cx="774.27" cy="365.05" rx="5.97" ry="5.26" transform="translate(-76.13 267.22) rotate(-18.68)"/><polygon class="cls-1" points="789.37 346.73 792.25 349.48 773.05 367.48 770.18 364.73 789.37 346.73"/><ellipse class="cls-1" cx="813.75" cy="362.12" rx="5.41" ry="5.73" transform="translate(343.18 1118.36) rotate(-82.1)"/><polygon class="cls-1" points="792.47 344.41 795.45 341.67 813.93 359.7 810.95 362.44 792.47 344.41"/><ellipse class="cls-1" cx="804.75" cy="326.03" rx="3.67" ry="3.59" transform="translate(468.34 1126.49) rotate(-89.26)"/><polygon class="cls-1" points="790.86 342.69 788.38 340.9 802.13 326.33 804.61 328.12 790.86 342.69"/><ellipse class="cls-1" cx="775.63" cy="326.45" rx="3.74" ry="3.83" transform="translate(-1.02 2.43) rotate(-.18)"/><polygon class="cls-1" points="794.42 338.48 792.3 340.72 776.17 329.07 778.29 326.83 794.42 338.48"/><ellipse class="cls-1" cx="787.77" cy="368.08" rx="5.71" ry="5.22" transform="translate(-80.76 409.61) rotate(-27.78)"/><polygon class="cls-1" points="787.28 351.21 790.43 351.09 789.4 370.45 786.26 370.57 787.28 351.21"/><ellipse class="cls-1" cx="816.08" cy="342.81" rx="4.04" ry="3.6" transform="translate(176.63 954.86) rotate(-66.53)"/><polygon class="cls-1" points="794.87 342.43 795.34 339.47 815.75 340.57 815.28 343.52 794.87 342.43"/><ellipse class="cls-1" cx="803.03" cy="371.25" rx="4.2" ry="4.09" transform="translate(418.06 1167.79) rotate(-89.02)"/><polygon class="cls-1" points="792.78 350.97 795.73 349.88 804.23 367.36 801.27 368.44 792.78 350.97"/><ellipse class="cls-1" cx="764.05" cy="335.67" rx="5.82" ry="5.98" transform="translate(-6.61 15.48) rotate(-1.16)"/><polygon class="cls-1" points="795.22 339.57 795.63 335.69 768.97 333.62 768.56 337.5 795.22 339.57"/><ellipse class="cls-1" cx="770.89" cy="347.26" rx="4.08" ry="4.7" transform="translate(376.75 1095.27) rotate(-86.46)"/><polygon class="cls-1" points="790.83 342.94 789.85 340.13 769.99 345.16 770.98 347.97 790.83 342.94"/><ellipse class="cls-1" cx="735.56" cy="292.27" rx="15.46" ry="16.78" transform="translate(-21.07 59.92) rotate(-4.6)"/><ellipse class="cls-1" cx="760.79" cy="279.66" rx="5.59" ry="5.72"/><polygon class="cls-1" points="733.4 290.3 732.3 286.56 758.12 279.37 759.22 283.11 733.4 290.3"/><ellipse class="cls-1" cx="733.02" cy="264.92" rx="5.46" ry="5.59" transform="translate(-1.64 4.59) rotate(-.36)"/><polygon class="cls-1" points="736.55 294.65 732.45 295.05 730.17 269.84 734.27 269.44 736.55 294.65"/><ellipse class="cls-1" cx="717.27" cy="314.05" rx="5.97" ry="5.26" transform="translate(-62.8 246.27) rotate(-18.68)"/><polygon class="cls-1" points="732.37 295.73 735.25 298.48 716.05 316.48 713.18 313.73 732.37 295.73"/><ellipse class="cls-1" cx="756.75" cy="311.12" rx="5.41" ry="5.73" transform="translate(344.53 1017.91) rotate(-82.1)"/><polygon class="cls-1" points="735.47 293.41 738.45 290.67 756.93 308.7 753.95 311.44 735.47 293.41"/><ellipse class="cls-1" cx="747.75" cy="275.03" rx="3.67" ry="3.59" transform="translate(463.08 1019.16) rotate(-89.26)"/><polygon class="cls-1" points="733.86 291.69 731.38 289.9 745.13 275.33 747.61 277.12 733.86 291.69"/><ellipse class="cls-1" cx="718.63" cy="275.45" rx="3.74" ry="3.83" transform="translate(-.86 2.25) rotate(-.18)"/><polygon class="cls-1" points="737.42 287.48 735.3 289.72 719.17 278.07 721.29 275.83 737.42 287.48"/><ellipse class="cls-1" cx="730.77" cy="317.08" rx="5.71" ry="5.22" transform="translate(-63.55 377.16) rotate(-27.78)"/><polygon class="cls-1" points="730.28 300.21 733.43 300.09 732.4 319.45 729.26 319.57 730.28 300.21"/><ellipse class="cls-1" cx="759.08" cy="291.81" rx="4.04" ry="3.6" transform="translate(189.11 871.89) rotate(-66.53)"/><polygon class="cls-1" points="737.87 291.43 738.34 288.47 758.75 289.57 758.28 292.52 737.87 291.43"/><ellipse class="cls-1" cx="746.03" cy="320.25" rx="4.2" ry="4.09" transform="translate(413.03 1060.67) rotate(-89.02)"/><polygon class="cls-1" points="735.78 299.97 738.73 298.88 747.23 316.36 744.27 317.44 735.78 299.97"/><ellipse class="cls-1" cx="707.05" cy="284.67" rx="5.82" ry="5.98" transform="translate(-5.6 14.32) rotate(-1.16)"/><polygon class="cls-1" points="738.22 288.57 738.63 284.69 711.97 282.62 711.56 286.5 738.22 288.57"/><ellipse class="cls-1" cx="713.89" cy="296.26" rx="4.08" ry="4.7" transform="translate(374.17 990.52) rotate(-86.46)"/><polygon class="cls-1" points="733.83 291.94 732.85 289.13 712.99 294.16 713.98 296.97 733.83 291.94"/><ellipse class="cls-1" cx="790.56" cy="428.27" rx="15.46" ry="16.78" transform="translate(-31.79 64.77) rotate(-4.6)"/><ellipse class="cls-1" cx="815.79" cy="415.66" rx="5.59" ry="5.72"/><polygon class="cls-1" points="788.4 426.3 787.3 422.56 813.12 415.37 814.22 419.11 788.4 426.3"/><ellipse class="cls-1" cx="788.02" cy="400.92" rx="5.46" ry="5.59" transform="translate(-2.49 4.94) rotate(-.36)"/><polygon class="cls-1" points="791.55 430.65 787.45 431.05 785.17 405.84 789.27 405.44 791.55 430.65"/><ellipse class="cls-1" cx="772.27" cy="450.05" rx="5.97" ry="5.26" transform="translate(-103.46 271.05) rotate(-18.68)"/><polygon class="cls-1" points="787.37 431.73 790.25 434.48 771.05 452.48 768.18 449.73 787.37 431.73"/><ellipse class="cls-1" cx="811.75" cy="447.12" rx="5.41" ry="5.73" transform="translate(257.26 1189.69) rotate(-82.1)"/><polygon class="cls-1" points="790.47 429.41 793.45 426.67 811.93 444.7 808.95 447.44 790.47 429.41"/><ellipse class="cls-1" cx="802.75" cy="411.03" rx="3.67" ry="3.59" transform="translate(381.38 1208.39) rotate(-89.26)"/><polygon class="cls-1" points="788.86 427.69 786.38 425.9 800.13 411.33 802.61 413.12 788.86 427.69"/><ellipse class="cls-1" cx="773.63" cy="411.45" rx="3.74" ry="3.83" transform="translate(-1.28 2.42) rotate(-.18)"/><polygon class="cls-1" points="792.42 423.48 790.3 425.72 774.17 414.07 776.29 411.83 792.42 423.48"/><ellipse class="cls-1" cx="785.77" cy="453.08" rx="5.71" ry="5.22" transform="translate(-120.6 418.48) rotate(-27.78)"/><polygon class="cls-1" points="785.28 436.21 788.43 436.09 787.4 455.45 784.26 455.57 785.28 436.21"/><ellipse class="cls-1" cx="814.08" cy="427.81" rx="4.04" ry="3.6" transform="translate(97.46 1004.18) rotate(-66.53)"/><polygon class="cls-1" points="792.87 427.43 793.34 424.47 813.75 425.57 813.28 428.52 792.87 427.43"/><ellipse class="cls-1" cx="801.03" cy="456.25" rx="4.2" ry="4.09" transform="translate(331.11 1249.33) rotate(-89.02)"/><polygon class="cls-1" points="790.78 435.97 793.73 434.88 802.23 452.36 799.27 453.44 790.78 435.97"/><ellipse class="cls-1" cx="762.05" cy="420.67" rx="5.82" ry="5.98" transform="translate(-8.33 15.45) rotate(-1.16)"/><polygon class="cls-1" points="793.22 424.57 793.63 420.69 766.97 418.62 766.56 422.5 793.22 424.57"/><ellipse class="cls-1" cx="768.89" cy="432.26" rx="4.08" ry="4.7" transform="translate(290.03 1173.03) rotate(-86.46)"/><polygon class="cls-1" points="788.83 427.94 787.85 425.13 767.99 430.16 768.98 432.97 788.83 427.94"/><ellipse class="cls-1" cx="954.77" cy="376.1" rx="15.46" ry="16.78" transform="translate(-27.08 77.76) rotate(-4.6)"/><ellipse class="cls-1" cx="980.01" cy="363.49" rx="5.59" ry="5.72"/><polygon class="cls-1" points="952.62 374.13 951.52 370.39 977.33 363.2 978.43 366.94 952.62 374.13"/><ellipse class="cls-1" cx="952.23" cy="348.75" rx="5.46" ry="5.59" transform="translate(-2.16 5.96) rotate(-.36)"/><polygon class="cls-1" points="955.77 378.48 951.66 378.88 949.38 353.67 953.48 353.27 955.77 378.48"/><ellipse class="cls-1" cx="936.48" cy="397.88" rx="5.97" ry="5.26" transform="translate(-78.1 320.9) rotate(-18.68)"/><polygon class="cls-1" points="951.58 379.56 954.46 382.3 935.27 400.31 932.39 397.56 951.58 379.56"/><ellipse class="cls-1" cx="975.96" cy="394.95" rx="5.41" ry="5.73" transform="translate(450.57 1307.34) rotate(-82.1)"/><polygon class="cls-1" points="954.68 377.24 957.66 374.5 976.14 392.53 973.16 395.27 954.68 377.24"/><ellipse class="cls-1" cx="966.96" cy="358.85" rx="3.67" ry="3.59" transform="translate(595.63 1321.09) rotate(-89.26)"/><polygon class="cls-1" points="953.07 375.52 950.59 373.73 964.34 359.16 966.82 360.95 953.07 375.52"/><ellipse class="cls-1" cx="937.85" cy="359.28" rx="3.74" ry="3.83" transform="translate(-1.12 2.94) rotate(-.18)"/><polygon class="cls-1" points="956.63 371.31 954.51 373.55 938.38 361.9 940.5 359.65 956.63 371.31"/><ellipse class="cls-1" cx="949.98" cy="400.9" rx="5.71" ry="5.22" transform="translate(-77.36 489) rotate(-27.78)"/><polygon class="cls-1" points="949.49 384.04 952.64 383.92 951.61 403.27 948.47 403.4 949.49 384.04"/><ellipse class="cls-1" cx="978.29" cy="375.63" rx="4.04" ry="3.6" transform="translate(244.13 1123.41) rotate(-66.53)"/><polygon class="cls-1" points="957.09 375.25 957.55 372.3 977.96 373.4 977.5 376.35 957.09 375.25"/><ellipse class="cls-1" cx="965.24" cy="404.07" rx="4.2" ry="4.09" transform="translate(544.67 1362.24) rotate(-89.02)"/><polygon class="cls-1" points="954.99 383.79 957.95 382.71 966.44 400.19 963.49 401.27 954.99 383.79"/><ellipse class="cls-1" cx="926.26" cy="368.5" rx="5.82" ry="5.98" transform="translate(-7.24 18.75) rotate(-1.16)"/><polygon class="cls-1" points="957.43 372.4 957.84 368.51 931.19 366.45 930.78 370.33 957.43 372.4"/><ellipse class="cls-1" cx="933.1" cy="380.09" rx="4.08" ry="4.7" transform="translate(496.19 1287.97) rotate(-86.46)"/><polygon class="cls-1" points="953.05 375.77 952.06 372.95 932.2 377.98 933.19 380.8 953.05 375.77"/><ellipse class="cls-1" cx="911.77" cy="465.1" rx="15.46" ry="16.78" transform="translate(-34.36 74.6) rotate(-4.6)"/><ellipse class="cls-1" cx="937.01" cy="452.49" rx="5.59" ry="5.72"/><polygon class="cls-1" points="909.62 463.13 908.52 459.39 934.33 452.2 935.43 455.94 909.62 463.13"/><ellipse class="cls-1" cx="909.23" cy="437.75" rx="5.46" ry="5.59" transform="translate(-2.72 5.7) rotate(-.36)"/><polygon class="cls-1" points="912.77 467.48 908.66 467.88 906.38 442.67 910.48 442.27 912.77 467.48"/><ellipse class="cls-1" cx="893.48" cy="486.88" rx="5.97" ry="5.26" transform="translate(-108.87 311.81) rotate(-18.68)"/><polygon class="cls-1" points="908.58 468.56 911.46 471.3 892.27 489.31 889.39 486.56 908.58 468.56"/><ellipse class="cls-1" cx="932.96" cy="483.95" rx="5.41" ry="5.73" transform="translate(325.33 1341.51) rotate(-82.1)"/><polygon class="cls-1" points="911.68 466.24 914.66 463.5 933.14 481.53 930.16 484.27 911.68 466.24"/><ellipse class="cls-1" cx="923.96" cy="447.85" rx="3.67" ry="3.59" transform="translate(464.2 1365.95) rotate(-89.26)"/><polygon class="cls-1" points="910.07 464.52 907.59 462.73 921.34 448.16 923.82 449.95 910.07 464.52"/><ellipse class="cls-1" cx="894.85" cy="448.28" rx="3.74" ry="3.83" transform="translate(-1.4 2.8) rotate(-.18)"/><polygon class="cls-1" points="913.63 460.31 911.51 462.55 895.38 450.9 897.5 448.65 913.63 460.31"/><ellipse class="cls-1" cx="906.98" cy="489.9" rx="5.71" ry="5.22" transform="translate(-123.8 479.22) rotate(-27.78)"/><polygon class="cls-1" points="906.49 473.04 909.64 472.92 908.61 492.27 905.47 492.4 906.49 473.04"/><ellipse class="cls-1" cx="935.29" cy="464.63" rx="4.04" ry="3.6" transform="translate(136.62 1137.52) rotate(-66.53)"/><polygon class="cls-1" points="914.09 464.25 914.55 461.3 934.96 462.4 934.5 465.35 914.09 464.25"/><ellipse class="cls-1" cx="922.24" cy="493.07" rx="4.2" ry="4.09" transform="translate(413.42 1406.72) rotate(-89.02)"/><polygon class="cls-1" points="911.99 472.79 914.95 471.71 923.44 489.19 920.49 490.27 911.99 472.79"/><ellipse class="cls-1" cx="883.26" cy="457.5" rx="5.82" ry="5.98" transform="translate(-9.05 17.91) rotate(-1.16)"/><polygon class="cls-1" points="914.43 461.4 914.84 457.51 888.19 455.45 887.78 459.33 914.43 461.4"/><ellipse class="cls-1" cx="890.1" cy="469.09" rx="4.08" ry="4.7" transform="translate(367.01 1328.57) rotate(-86.46)"/><polygon class="cls-1" points="910.05 464.77 909.06 461.95 889.2 466.98 890.19 469.8 910.05 464.77"/><ellipse class="cls-1" cx="1351.78" cy="701.44" rx="15.46" ry="16.78" transform="translate(-51.89 110.64) rotate(-4.6)"/><ellipse class="cls-1" cx="1377.02" cy="688.83" rx="5.59" ry="5.72"/><polygon class="cls-1" points="1349.63 699.47 1348.53 695.73 1374.35 688.54 1375.45 692.28 1349.63 699.47"/><ellipse class="cls-1" cx="1349.24" cy="674.09" rx="5.46" ry="5.59" transform="translate(-4.19 8.45) rotate(-.36)"/><polygon class="cls-1" points="1352.78 703.82 1348.67 704.22 1346.39 679.01 1350.5 678.61 1352.78 703.82"/><ellipse class="cls-1" cx="1333.5" cy="723.22" rx="5.97" ry="5.26" transform="translate(-161.39 465.19) rotate(-18.68)"/><polygon class="cls-1" points="1348.6 704.9 1351.47 707.64 1332.28 725.65 1329.41 722.9 1348.6 704.9"/><ellipse class="cls-1" cx="1372.97" cy="720.29" rx="5.41" ry="5.73" transform="translate(470.75 1981.19) rotate(-82.1)"/><polygon class="cls-1" points="1351.69 702.58 1354.68 699.84 1373.16 717.87 1370.18 720.61 1351.69 702.58"/><ellipse class="cls-1" cx="1363.98" cy="684.19" rx="3.67" ry="3.59" transform="translate(662.2 2039.21) rotate(-89.26)"/><polygon class="cls-1" points="1350.08 700.86 1347.6 699.07 1361.36 684.5 1363.84 686.29 1350.08 700.86"/><ellipse class="cls-1" cx="1334.86" cy="684.62" rx="3.74" ry="3.83" transform="translate(-2.14 4.18) rotate(-.18)"/><polygon class="cls-1" points="1353.64 696.65 1351.53 698.89 1335.4 687.24 1337.51 684.99 1353.64 696.65"/><ellipse class="cls-1" cx="1347" cy="726.24" rx="5.71" ry="5.22" transform="translate(-183.24 711.56) rotate(-27.78)"/><polygon class="cls-1" points="1346.51 709.38 1349.66 709.26 1348.63 728.61 1345.48 728.74 1346.51 709.38"/><ellipse class="cls-1" cx="1375.31" cy="700.97" rx="4.04" ry="3.6" transform="translate(184.61 1683.36) rotate(-66.53)"/><polygon class="cls-1" points="1354.1 700.59 1354.57 697.64 1374.98 698.73 1374.51 701.69 1354.1 700.59"/><ellipse class="cls-1" cx="1362.25" cy="729.41" rx="4.2" ry="4.09" transform="translate(609.59 2078.96) rotate(-89.02)"/><polygon class="cls-1" points="1352.01 709.13 1354.96 708.05 1363.45 725.53 1360.5 726.61 1352.01 709.13"/><ellipse class="cls-1" cx="1323.27" cy="693.84" rx="5.82" ry="5.98" transform="translate(-13.72 26.83) rotate(-1.16)"/><polygon class="cls-1" points="1354.45 697.74 1354.86 693.85 1328.2 691.78 1327.79 695.67 1354.45 697.74"/><ellipse class="cls-1" cx="1330.12" cy="705.43" rx="4.08" ry="4.7" transform="translate(544 1989.51) rotate(-86.46)"/><polygon class="cls-1" points="1350.06 701.11 1349.08 698.29 1329.22 703.32 1330.21 706.14 1350.06 701.11"/><ellipse class="cls-1" cx="391.78" cy="484.44" rx="15.46" ry="16.78" transform="translate(-37.58 32.97) rotate(-4.6)"/><ellipse class="cls-1" cx="417.02" cy="471.83" rx="5.59" ry="5.72"/><polygon class="cls-1" points="389.63 482.47 388.53 478.73 414.35 471.54 415.45 475.28 389.63 482.47"/><ellipse class="cls-1" cx="389.24" cy="457.09" rx="5.46" ry="5.59" transform="translate(-2.85 2.44) rotate(-.36)"/><polygon class="cls-1" points="392.78 486.82 388.67 487.22 386.39 462.01 390.5 461.61 392.78 486.82"/><ellipse class="cls-1" cx="373.5" cy="506.22" rx="5.97" ry="5.26" transform="translate(-142.46 146.29) rotate(-18.68)"/><polygon class="cls-1" points="388.6 487.9 391.47 490.64 372.28 508.65 369.41 505.9 388.6 487.9"/><ellipse class="cls-1" cx="412.97" cy="503.29" rx="5.41" ry="5.73" transform="translate(-142.32 843.15) rotate(-82.1)"/><polygon class="cls-1" points="391.69 485.58 394.68 482.84 413.16 500.87 410.18 503.61 391.69 485.58"/><ellipse class="cls-1" cx="403.98" cy="467.19" rx="3.67" ry="3.59" transform="translate(-68.4 865.09) rotate(-89.26)"/><polygon class="cls-1" points="390.08 483.86 387.6 482.07 401.36 467.5 403.84 469.29 390.08 483.86"/><ellipse class="cls-1" cx="374.86" cy="467.62" rx="3.74" ry="3.83" transform="translate(-1.46 1.18) rotate(-.18)"/><polygon class="cls-1" points="393.64 479.65 391.53 481.89 375.4 470.24 377.51 467.99 393.64 479.65"/><ellipse class="cls-1" cx="387" cy="509.24" rx="5.71" ry="5.22" transform="translate(-192.75 239.08) rotate(-27.78)"/><polygon class="cls-1" points="386.51 492.38 389.66 492.26 388.63 511.61 385.48 511.74 386.51 492.38"/><ellipse class="cls-1" cx="415.31" cy="483.97" rx="4.04" ry="3.6" transform="translate(-194.02 672.19) rotate(-66.53)"/><polygon class="cls-1" points="394.1 483.59 394.57 480.64 414.98 481.73 414.51 484.69 394.1 483.59"/><ellipse class="cls-1" cx="402.25" cy="512.41" rx="4.2" ry="4.09" transform="translate(-116.98 905.82) rotate(-89.02)"/><polygon class="cls-1" points="392.01 492.13 394.96 491.05 403.45 508.53 400.5 509.61 392.01 492.13"/><ellipse class="cls-1" cx="363.27" cy="476.84" rx="5.82" ry="5.98" transform="translate(-9.54 7.42) rotate(-1.16)"/><polygon class="cls-1" points="394.45 480.74 394.86 476.85 368.2 474.78 367.79 478.67 394.45 480.74"/><ellipse class="cls-1" cx="370.12" cy="488.43" rx="4.08" ry="4.7" transform="translate(-140.21 827.72) rotate(-86.46)"/><polygon class="cls-1" points="390.06 484.11 389.08 481.29 369.22 486.32 370.21 489.14 390.06 484.11"/><ellipse class="cls-1" cx="245.78" cy="645.44" rx="15.46" ry="16.78" transform="translate(-50.96 21.79) rotate(-4.6)"/><ellipse class="cls-1" cx="271.02" cy="632.83" rx="5.59" ry="5.72"/><polygon class="cls-1" points="243.63 643.47 242.53 639.73 268.35 632.54 269.45 636.28 243.63 643.47"/><ellipse class="cls-1" cx="243.24" cy="618.09" rx="5.46" ry="5.59" transform="translate(-3.86 1.53) rotate(-.36)"/><polygon class="cls-1" points="246.78 647.82 242.67 648.22 240.39 623.01 244.5 622.61 246.78 647.82"/><ellipse class="cls-1" cx="227.5" cy="667.22" rx="5.97" ry="5.26" transform="translate(-201.71 108.01) rotate(-18.68)"/><polygon class="cls-1" points="242.6 648.9 245.47 651.64 226.28 669.65 223.41 666.9 242.6 648.9"/><ellipse class="cls-1" cx="266.97" cy="664.29" rx="5.41" ry="5.73" transform="translate(-427.72 837.4) rotate(-82.1)"/><polygon class="cls-1" points="245.69 646.58 248.68 643.84 267.16 661.87 264.18 664.61 245.69 646.58"/><ellipse class="cls-1" cx="257.98" cy="628.19" rx="3.67" ry="3.59" transform="translate(-373.5 878.02) rotate(-89.26)"/><polygon class="cls-1" points="244.08 644.86 241.6 643.07 255.36 628.5 257.84 630.29 244.08 644.86"/><ellipse class="cls-1" cx="228.86" cy="628.62" rx="3.74" ry="3.83" transform="translate(-1.97 .72) rotate(-.18)"/><polygon class="cls-1" points="247.64 640.65 245.53 642.89 229.4 631.24 231.51 628.99 247.64 640.65"/><ellipse class="cls-1" cx="241" cy="670.24" rx="5.71" ry="5.22" transform="translate(-284.62 189.59) rotate(-27.78)"/><polygon class="cls-1" points="240.51 653.38 243.66 653.26 242.63 672.61 239.48 672.74 240.51 653.38"/><ellipse class="cls-1" cx="269.31" cy="644.97" rx="4.04" ry="3.6" transform="translate(-429.56 635.15) rotate(-66.53)"/><polygon class="cls-1" points="248.1 644.59 248.57 641.64 268.98 642.73 268.51 645.69 248.1 644.59"/><ellipse class="cls-1" cx="256.25" cy="673.41" rx="4.2" ry="4.09" transform="translate(-421.46 918.08) rotate(-89.02)"/><polygon class="cls-1" points="246.01 653.13 248.96 652.05 257.45 669.53 254.5 670.61 246.01 653.13"/><ellipse class="cls-1" cx="217.27" cy="637.84" rx="5.82" ry="5.98" transform="translate(-12.82 4.51) rotate(-1.16)"/><polygon class="cls-1" points="248.45 641.74 248.86 637.85 222.2 635.78 221.79 639.67 248.45 641.74"/><ellipse class="cls-1" cx="224.12" cy="649.43" rx="4.08" ry="4.7" transform="translate(-437.89 833.07) rotate(-86.46)"/><polygon class="cls-1" points="244.06 645.11 243.08 642.29 223.22 647.32 224.21 650.14 244.06 645.11"/><polyline class="cls-3" points="1330 1420 1403.58 1348.4 1504 1213"/><polygon class="cls-3" points="220.4 1360.9 374.78 1486 502.1 1551.51 644.46 1595.23 808.5 1612 934.89 1602.11 1038.6 1578.56 1137.78 1542.31 1207.24 1506.23 1290.67 1451.3 1359.59 1385 220.4 1360.9"/><path class="cls-6" d="m1612,808.5c0,271.19-134.35,511-340.13,656.51-130.94,92.59-290.8,146.99-463.37,146.99-217.33,0-414.51-86.28-559.14-226.46C98.66,1239.49,5,1034.93,5,808.5,5,364.74,364.74,5,808.5,5s803.5,359.74,803.5,803.5Z"/></svg>